<mxfile host="app.diagrams.net" modified="2024-07-14T18:48:15.181Z" agent="Mozilla/5.0 (Macintosh; Intel Mac OS X 10_15_7) AppleWebKit/605.1.15 (KHTML, like Gecko) Version/17.5 Safari/605.1.15" etag="Fd3fDYkvEhBwjvAFQdbX" version="24.6.5" type="device">
  <diagram name="Page-1" id="T1-6JBChSrpK32Yw8LHf">
    <mxGraphModel dx="2162" dy="856" grid="1" gridSize="10" guides="1" tooltips="1" connect="1" arrows="1" fold="1" page="1" pageScale="1" pageWidth="850" pageHeight="1100" math="0" shadow="0">
      <root>
        <mxCell id="0" />
        <mxCell id="1" parent="0" />
        <mxCell id="lAIXfmTGiXvmbAfdySJ4-13" value="" style="swimlane;startSize=0;strokeWidth=3;fillColor=none;fontColor=#ffffff;strokeColor=#000000;fillStyle=solid;rounded=1;dashed=1;" parent="1" vertex="1">
          <mxGeometry x="-40" y="120" width="680" height="520" as="geometry">
            <mxRectangle x="-40" y="110" width="50" height="40" as="alternateBounds" />
          </mxGeometry>
        </mxCell>
        <mxCell id="lAIXfmTGiXvmbAfdySJ4-22" style="edgeStyle=orthogonalEdgeStyle;rounded=0;orthogonalLoop=1;jettySize=auto;html=1;exitX=1;exitY=0.5;exitDx=0;exitDy=0;entryX=0;entryY=0.5;entryDx=0;entryDy=0;strokeWidth=3;" parent="lAIXfmTGiXvmbAfdySJ4-13" source="lAIXfmTGiXvmbAfdySJ4-6" target="lAIXfmTGiXvmbAfdySJ4-2" edge="1">
          <mxGeometry relative="1" as="geometry" />
        </mxCell>
        <mxCell id="lAIXfmTGiXvmbAfdySJ4-6" value="RNG" style="triangle;whiteSpace=wrap;html=1;fillColor=#f8cecc;strokeColor=#b85450;fontSize=14;" parent="lAIXfmTGiXvmbAfdySJ4-13" vertex="1">
          <mxGeometry x="70" y="395" width="60" height="80" as="geometry" />
        </mxCell>
        <mxCell id="lAIXfmTGiXvmbAfdySJ4-14" style="edgeStyle=orthogonalEdgeStyle;rounded=0;orthogonalLoop=1;jettySize=auto;html=1;exitX=1;exitY=0.5;exitDx=0;exitDy=0;entryX=0;entryY=0.5;entryDx=0;entryDy=0;strokeWidth=3;" parent="lAIXfmTGiXvmbAfdySJ4-13" source="lAIXfmTGiXvmbAfdySJ4-5" target="lAIXfmTGiXvmbAfdySJ4-1" edge="1">
          <mxGeometry relative="1" as="geometry" />
        </mxCell>
        <mxCell id="lAIXfmTGiXvmbAfdySJ4-5" value="RNG" style="triangle;whiteSpace=wrap;html=1;fillColor=#f8cecc;strokeColor=#b85450;fontSize=14;" parent="lAIXfmTGiXvmbAfdySJ4-13" vertex="1">
          <mxGeometry x="70" y="50" width="60" height="80" as="geometry" />
        </mxCell>
        <mxCell id="lAIXfmTGiXvmbAfdySJ4-198" style="edgeStyle=orthogonalEdgeStyle;rounded=0;orthogonalLoop=1;jettySize=auto;html=1;exitX=1;exitY=0.25;exitDx=0;exitDy=0;entryX=0;entryY=0.75;entryDx=0;entryDy=0;strokeWidth=3;" parent="lAIXfmTGiXvmbAfdySJ4-13" source="lAIXfmTGiXvmbAfdySJ4-2" target="lAIXfmTGiXvmbAfdySJ4-11" edge="1">
          <mxGeometry relative="1" as="geometry" />
        </mxCell>
        <mxCell id="lAIXfmTGiXvmbAfdySJ4-2" value="IV&lt;div style=&quot;font-size: 14px;&quot;&gt;(16B)&lt;/div&gt;" style="rounded=0;whiteSpace=wrap;html=1;fillColor=#dae8fc;strokeColor=#6c8ebf;fontSize=14;" parent="lAIXfmTGiXvmbAfdySJ4-13" vertex="1">
          <mxGeometry x="195" y="404" width="120" height="60" as="geometry" />
        </mxCell>
        <mxCell id="lAIXfmTGiXvmbAfdySJ4-15" style="edgeStyle=orthogonalEdgeStyle;rounded=0;orthogonalLoop=1;jettySize=auto;html=1;exitX=1;exitY=0.5;exitDx=0;exitDy=0;entryX=0;entryY=0.25;entryDx=0;entryDy=0;strokeWidth=3;" parent="lAIXfmTGiXvmbAfdySJ4-13" source="lAIXfmTGiXvmbAfdySJ4-1" target="lAIXfmTGiXvmbAfdySJ4-3" edge="1">
          <mxGeometry relative="1" as="geometry" />
        </mxCell>
        <mxCell id="lAIXfmTGiXvmbAfdySJ4-1" value="Salt&lt;div style=&quot;font-size: 14px;&quot;&gt;(32B)&lt;/div&gt;" style="rounded=0;whiteSpace=wrap;html=1;fillColor=#dae8fc;strokeColor=#6c8ebf;fontSize=14;" parent="lAIXfmTGiXvmbAfdySJ4-13" vertex="1">
          <mxGeometry x="192" y="60" width="120" height="60" as="geometry" />
        </mxCell>
        <mxCell id="lAIXfmTGiXvmbAfdySJ4-17" style="edgeStyle=orthogonalEdgeStyle;rounded=0;orthogonalLoop=1;jettySize=auto;html=1;exitX=1;exitY=0.5;exitDx=0;exitDy=0;entryX=0;entryY=0.5;entryDx=0;entryDy=0;strokeWidth=3;" parent="lAIXfmTGiXvmbAfdySJ4-13" source="lAIXfmTGiXvmbAfdySJ4-3" target="lAIXfmTGiXvmbAfdySJ4-7" edge="1">
          <mxGeometry relative="1" as="geometry" />
        </mxCell>
        <mxCell id="lAIXfmTGiXvmbAfdySJ4-3" value="PBKDF2" style="triangle;whiteSpace=wrap;html=1;fillColor=#f8cecc;strokeColor=#b85450;fontSize=14;" parent="lAIXfmTGiXvmbAfdySJ4-13" vertex="1">
          <mxGeometry x="355" y="110" width="110" height="110" as="geometry" />
        </mxCell>
        <mxCell id="lAIXfmTGiXvmbAfdySJ4-21" style="edgeStyle=orthogonalEdgeStyle;rounded=0;orthogonalLoop=1;jettySize=auto;html=1;exitX=1;exitY=0.5;exitDx=0;exitDy=0;entryX=0;entryY=0.25;entryDx=0;entryDy=0;strokeWidth=3;" parent="lAIXfmTGiXvmbAfdySJ4-13" source="lAIXfmTGiXvmbAfdySJ4-7" target="lAIXfmTGiXvmbAfdySJ4-11" edge="1">
          <mxGeometry relative="1" as="geometry" />
        </mxCell>
        <mxCell id="lAIXfmTGiXvmbAfdySJ4-7" value="Key&lt;div style=&quot;font-size: 14px;&quot;&gt;(32B)&lt;/div&gt;" style="rounded=0;whiteSpace=wrap;html=1;fillColor=#6a00ff;fontColor=#ffffff;strokeColor=#3700CC;fontSize=14;" parent="lAIXfmTGiXvmbAfdySJ4-13" vertex="1">
          <mxGeometry x="496" y="135" width="120" height="60" as="geometry" />
        </mxCell>
        <mxCell id="lAIXfmTGiXvmbAfdySJ4-20" style="edgeStyle=orthogonalEdgeStyle;rounded=0;orthogonalLoop=1;jettySize=auto;html=1;exitX=1;exitY=0.5;exitDx=0;exitDy=0;entryX=0;entryY=0.5;entryDx=0;entryDy=0;strokeWidth=3;" parent="lAIXfmTGiXvmbAfdySJ4-13" source="lAIXfmTGiXvmbAfdySJ4-10" target="lAIXfmTGiXvmbAfdySJ4-11" edge="1">
          <mxGeometry relative="1" as="geometry" />
        </mxCell>
        <mxCell id="lAIXfmTGiXvmbAfdySJ4-10" value="Padded plaintext" style="rounded=0;whiteSpace=wrap;html=1;fillColor=#e1d5e7;strokeColor=#9673a6;fontSize=14;" parent="lAIXfmTGiXvmbAfdySJ4-13" vertex="1">
          <mxGeometry x="192" y="281" width="180" height="80" as="geometry" />
        </mxCell>
        <mxCell id="lAIXfmTGiXvmbAfdySJ4-19" style="edgeStyle=orthogonalEdgeStyle;rounded=0;orthogonalLoop=1;jettySize=auto;html=1;exitX=1;exitY=0.5;exitDx=0;exitDy=0;entryX=0;entryY=0.5;entryDx=0;entryDy=0;strokeColor=default;strokeWidth=3;align=center;verticalAlign=middle;fontFamily=Helvetica;fontSize=11;fontColor=default;labelBackgroundColor=default;endArrow=classic;" parent="lAIXfmTGiXvmbAfdySJ4-13" source="lAIXfmTGiXvmbAfdySJ4-195" target="lAIXfmTGiXvmbAfdySJ4-10" edge="1">
          <mxGeometry relative="1" as="geometry">
            <mxPoint x="190" y="335.5" as="sourcePoint" />
          </mxGeometry>
        </mxCell>
        <mxCell id="lAIXfmTGiXvmbAfdySJ4-11" value="&lt;div style=&quot;font-size: 14px;&quot;&gt;AES-GCM&lt;/div&gt;&lt;div style=&quot;font-size: 14px;&quot;&gt;(SHA-256)&lt;/div&gt;" style="triangle;whiteSpace=wrap;html=1;fillColor=#f8cecc;strokeColor=#b85450;fontSize=14;" parent="lAIXfmTGiXvmbAfdySJ4-13" vertex="1">
          <mxGeometry x="478" y="253.5" width="120" height="135" as="geometry" />
        </mxCell>
        <mxCell id="lAIXfmTGiXvmbAfdySJ4-195" value="&lt;div style=&quot;font-size: 14px;&quot;&gt;PKCS#7&lt;br style=&quot;font-size: 14px;&quot;&gt;&lt;/div&gt;&lt;div style=&quot;font-size: 14px;&quot;&gt;Pad&lt;/div&gt;" style="shape=rhombus;perimeter=rhombusPerimeter;whiteSpace=wrap;html=1;align=center;fillColor=#e1d5e7;strokeColor=#9673a6;fontSize=14;" parent="lAIXfmTGiXvmbAfdySJ4-13" vertex="1">
          <mxGeometry x="38" y="291" width="120" height="60" as="geometry" />
        </mxCell>
        <mxCell id="lAIXfmTGiXvmbAfdySJ4-201" value="Encrypt" style="text;html=1;align=center;verticalAlign=middle;resizable=0;points=[];autosize=1;strokeColor=none;fillColor=none;fontFamily=Helvetica;fontSize=28;fontColor=default;labelBackgroundColor=none;fontStyle=5;" parent="lAIXfmTGiXvmbAfdySJ4-13" vertex="1">
          <mxGeometry x="280" width="120" height="50" as="geometry" />
        </mxCell>
        <mxCell id="lAIXfmTGiXvmbAfdySJ4-12" value="Password" style="shape=process;whiteSpace=wrap;html=1;backgroundOutline=1;fillColor=#ffe6cc;strokeColor=#d79b00;fontSize=18;" parent="1" vertex="1">
          <mxGeometry x="-40" y="20" width="120" height="60" as="geometry" />
        </mxCell>
        <mxCell id="lAIXfmTGiXvmbAfdySJ4-16" style="edgeStyle=orthogonalEdgeStyle;rounded=0;orthogonalLoop=1;jettySize=auto;html=1;exitX=0;exitY=0.5;exitDx=0;exitDy=0;entryX=0;entryY=0.75;entryDx=0;entryDy=0;strokeWidth=3;" parent="1" source="lAIXfmTGiXvmbAfdySJ4-12" target="lAIXfmTGiXvmbAfdySJ4-3" edge="1">
          <mxGeometry relative="1" as="geometry">
            <Array as="points">
              <mxPoint x="-80" y="50" />
              <mxPoint x="-80" y="313" />
            </Array>
          </mxGeometry>
        </mxCell>
        <mxCell id="lAIXfmTGiXvmbAfdySJ4-8" value="Plaintext" style="shape=note;whiteSpace=wrap;html=1;backgroundOutline=1;darkOpacity=0.05;fillColor=#fff2cc;strokeColor=#d6b656;fontSize=18;" parent="1" vertex="1">
          <mxGeometry x="-40" y="680" width="170" height="130" as="geometry" />
        </mxCell>
        <mxCell id="lAIXfmTGiXvmbAfdySJ4-185" style="edgeStyle=orthogonalEdgeStyle;rounded=0;orthogonalLoop=1;jettySize=auto;html=1;exitX=1;exitY=0.5;exitDx=0;exitDy=0;entryX=0;entryY=0.5;entryDx=0;entryDy=0;strokeWidth=3;" parent="1" source="lAIXfmTGiXvmbAfdySJ4-156" target="lAIXfmTGiXvmbAfdySJ4-178" edge="1">
          <mxGeometry relative="1" as="geometry" />
        </mxCell>
        <mxCell id="lAIXfmTGiXvmbAfdySJ4-156" value="Ciphertext" style="rounded=1;whiteSpace=wrap;html=1;fillColor=#B9E0A5;strokeColor=#6c8ebf;fontSize=18;" parent="1" vertex="1">
          <mxGeometry x="685" y="386" width="190" height="110" as="geometry" />
        </mxCell>
        <mxCell id="lAIXfmTGiXvmbAfdySJ4-180" style="edgeStyle=orthogonalEdgeStyle;rounded=0;orthogonalLoop=1;jettySize=auto;html=1;exitX=1;exitY=0.5;exitDx=0;exitDy=0;entryX=0;entryY=0.75;entryDx=0;entryDy=0;strokeWidth=3;" parent="1" source="lAIXfmTGiXvmbAfdySJ4-157" target="lAIXfmTGiXvmbAfdySJ4-171" edge="1">
          <mxGeometry relative="1" as="geometry">
            <Array as="points">
              <mxPoint x="940" y="313" />
              <mxPoint x="940" y="263" />
            </Array>
          </mxGeometry>
        </mxCell>
        <mxCell id="lAIXfmTGiXvmbAfdySJ4-157" value="Salt" style="rounded=1;whiteSpace=wrap;html=1;fillColor=#dae8fc;strokeColor=#6c8ebf;fontSize=18;" parent="1" vertex="1">
          <mxGeometry x="685" y="275" width="190" height="75" as="geometry" />
        </mxCell>
        <mxCell id="lAIXfmTGiXvmbAfdySJ4-161" value="IV" style="rounded=1;whiteSpace=wrap;html=1;fillColor=#dae8fc;strokeColor=#6c8ebf;fontSize=18;" parent="1" vertex="1">
          <mxGeometry x="685" y="531" width="190" height="75" as="geometry" />
        </mxCell>
        <mxCell id="lAIXfmTGiXvmbAfdySJ4-162" value="" style="swimlane;startSize=0;strokeWidth=3;fillColor=none;fontColor=#ffffff;strokeColor=#000000;fillStyle=dots;rounded=1;dashed=1;" parent="1" vertex="1">
          <mxGeometry x="920" y="120" width="620" height="520" as="geometry" />
        </mxCell>
        <mxCell id="lAIXfmTGiXvmbAfdySJ4-170" style="edgeStyle=orthogonalEdgeStyle;rounded=0;orthogonalLoop=1;jettySize=auto;html=1;exitX=1;exitY=0.5;exitDx=0;exitDy=0;entryX=0;entryY=0.5;entryDx=0;entryDy=0;strokeWidth=3;" parent="lAIXfmTGiXvmbAfdySJ4-162" source="lAIXfmTGiXvmbAfdySJ4-171" target="lAIXfmTGiXvmbAfdySJ4-173" edge="1">
          <mxGeometry relative="1" as="geometry" />
        </mxCell>
        <mxCell id="lAIXfmTGiXvmbAfdySJ4-171" value="PBKDF2" style="triangle;whiteSpace=wrap;html=1;fillColor=#f8cecc;strokeColor=#b85450;fontSize=14;" parent="lAIXfmTGiXvmbAfdySJ4-162" vertex="1">
          <mxGeometry x="59" y="60" width="100" height="110" as="geometry" />
        </mxCell>
        <mxCell id="lAIXfmTGiXvmbAfdySJ4-172" style="edgeStyle=orthogonalEdgeStyle;rounded=0;orthogonalLoop=1;jettySize=auto;html=1;exitX=1;exitY=0.5;exitDx=0;exitDy=0;entryX=0;entryY=0.25;entryDx=0;entryDy=0;strokeWidth=3;" parent="lAIXfmTGiXvmbAfdySJ4-162" source="lAIXfmTGiXvmbAfdySJ4-173" target="lAIXfmTGiXvmbAfdySJ4-178" edge="1">
          <mxGeometry relative="1" as="geometry" />
        </mxCell>
        <mxCell id="lAIXfmTGiXvmbAfdySJ4-173" value="Key&lt;div style=&quot;font-size: 14px;&quot;&gt;(32B)&lt;/div&gt;" style="rounded=0;whiteSpace=wrap;html=1;fillColor=#6a00ff;fontColor=#ffffff;strokeColor=#3700CC;fontSize=14;" parent="lAIXfmTGiXvmbAfdySJ4-162" vertex="1">
          <mxGeometry x="202" y="85" width="120" height="60" as="geometry" />
        </mxCell>
        <mxCell id="lAIXfmTGiXvmbAfdySJ4-187" style="edgeStyle=orthogonalEdgeStyle;rounded=0;orthogonalLoop=1;jettySize=auto;html=1;exitX=1;exitY=0.5;exitDx=0;exitDy=0;entryX=0;entryY=0.5;entryDx=0;entryDy=0;strokeWidth=3;" parent="lAIXfmTGiXvmbAfdySJ4-162" source="lAIXfmTGiXvmbAfdySJ4-178" target="lAIXfmTGiXvmbAfdySJ4-175" edge="1">
          <mxGeometry relative="1" as="geometry" />
        </mxCell>
        <mxCell id="lAIXfmTGiXvmbAfdySJ4-178" value="&lt;div style=&quot;font-size: 14px;&quot;&gt;AES-GCM&lt;/div&gt;&lt;div style=&quot;font-size: 14px;&quot;&gt;(Reverse)&lt;/div&gt;" style="triangle;whiteSpace=wrap;html=1;fillColor=#f8cecc;strokeColor=#b85450;fontSize=14;" parent="lAIXfmTGiXvmbAfdySJ4-162" vertex="1">
          <mxGeometry x="181" y="254" width="120" height="135" as="geometry" />
        </mxCell>
        <mxCell id="lAIXfmTGiXvmbAfdySJ4-188" style="edgeStyle=orthogonalEdgeStyle;rounded=0;orthogonalLoop=1;jettySize=auto;html=1;exitX=1;exitY=0.5;exitDx=0;exitDy=0;entryX=0.5;entryY=0;entryDx=0;entryDy=0;strokeWidth=3;" parent="lAIXfmTGiXvmbAfdySJ4-162" source="lAIXfmTGiXvmbAfdySJ4-175" target="lAIXfmTGiXvmbAfdySJ4-196" edge="1">
          <mxGeometry relative="1" as="geometry" />
        </mxCell>
        <mxCell id="lAIXfmTGiXvmbAfdySJ4-175" value="Padded plaintext" style="rounded=0;whiteSpace=wrap;html=1;fillColor=#e1d5e7;strokeColor=#9673a6;fontSize=14;" parent="lAIXfmTGiXvmbAfdySJ4-162" vertex="1">
          <mxGeometry x="350" y="281.5" width="180" height="80" as="geometry" />
        </mxCell>
        <mxCell id="lAIXfmTGiXvmbAfdySJ4-196" value="&lt;div style=&quot;font-size: 14px;&quot;&gt;PKCS#7&lt;br style=&quot;font-size: 14px;&quot;&gt;&lt;/div&gt;&lt;div style=&quot;font-size: 14px;&quot;&gt;Trim&lt;/div&gt;" style="shape=rhombus;perimeter=rhombusPerimeter;whiteSpace=wrap;html=1;align=center;fillColor=#e1d5e7;strokeColor=#9673a6;fontSize=14;" parent="lAIXfmTGiXvmbAfdySJ4-162" vertex="1">
          <mxGeometry x="460" y="430" width="120" height="60" as="geometry" />
        </mxCell>
        <mxCell id="lAIXfmTGiXvmbAfdySJ4-202" value="Decrypt" style="text;html=1;align=center;verticalAlign=middle;resizable=0;points=[];autosize=1;strokeColor=none;fillColor=none;fontFamily=Helvetica;fontSize=28;fontColor=default;labelBackgroundColor=none;fontStyle=5;" parent="lAIXfmTGiXvmbAfdySJ4-162" vertex="1">
          <mxGeometry x="250" width="120" height="50" as="geometry" />
        </mxCell>
        <mxCell id="lAIXfmTGiXvmbAfdySJ4-182" style="edgeStyle=orthogonalEdgeStyle;rounded=0;orthogonalLoop=1;jettySize=auto;html=1;exitX=0;exitY=0.5;exitDx=0;exitDy=0;entryX=0;entryY=0.25;entryDx=0;entryDy=0;strokeWidth=3;" parent="1" source="lAIXfmTGiXvmbAfdySJ4-181" target="lAIXfmTGiXvmbAfdySJ4-171" edge="1">
          <mxGeometry relative="1" as="geometry">
            <Array as="points">
              <mxPoint x="880" y="70" />
              <mxPoint x="880" y="207" />
            </Array>
          </mxGeometry>
        </mxCell>
        <mxCell id="lAIXfmTGiXvmbAfdySJ4-181" value="Password" style="shape=process;whiteSpace=wrap;html=1;backgroundOutline=1;fillColor=#ffe6cc;strokeColor=#d79b00;fontSize=18;" parent="1" vertex="1">
          <mxGeometry x="920" y="40" width="120" height="60" as="geometry" />
        </mxCell>
        <mxCell id="lAIXfmTGiXvmbAfdySJ4-183" style="edgeStyle=orthogonalEdgeStyle;rounded=0;orthogonalLoop=1;jettySize=auto;html=1;exitX=1;exitY=0.5;exitDx=0;exitDy=0;entryX=0;entryY=0.75;entryDx=0;entryDy=0;strokeWidth=3;" parent="1" source="lAIXfmTGiXvmbAfdySJ4-161" target="lAIXfmTGiXvmbAfdySJ4-178" edge="1">
          <mxGeometry relative="1" as="geometry">
            <mxPoint x="1110" y="660" as="targetPoint" />
          </mxGeometry>
        </mxCell>
        <mxCell id="lAIXfmTGiXvmbAfdySJ4-189" value="Plaintext" style="shape=note;whiteSpace=wrap;html=1;backgroundOutline=1;darkOpacity=0.05;fillColor=#fff2cc;strokeColor=#d6b656;fontSize=18;" parent="1" vertex="1">
          <mxGeometry x="1370" y="680" width="170" height="130" as="geometry" />
        </mxCell>
        <mxCell id="lAIXfmTGiXvmbAfdySJ4-191" style="edgeStyle=orthogonalEdgeStyle;rounded=0;orthogonalLoop=1;jettySize=auto;html=1;exitX=1;exitY=0.5;exitDx=0;exitDy=0;entryX=0.25;entryY=0;entryDx=0;entryDy=0;strokeWidth=3;" parent="1" source="lAIXfmTGiXvmbAfdySJ4-1" target="lAIXfmTGiXvmbAfdySJ4-157" edge="1">
          <mxGeometry relative="1" as="geometry" />
        </mxCell>
        <mxCell id="lAIXfmTGiXvmbAfdySJ4-200" style="edgeStyle=orthogonalEdgeStyle;shape=connector;rounded=0;orthogonalLoop=1;jettySize=auto;html=1;exitX=1;exitY=0.5;exitDx=0;exitDy=0;entryX=0;entryY=0.5;entryDx=0;entryDy=0;strokeColor=default;strokeWidth=3;align=center;verticalAlign=middle;fontFamily=Helvetica;fontSize=11;fontColor=default;labelBackgroundColor=default;endArrow=classic;" parent="1" source="lAIXfmTGiXvmbAfdySJ4-11" target="lAIXfmTGiXvmbAfdySJ4-156" edge="1">
          <mxGeometry relative="1" as="geometry" />
        </mxCell>
        <mxCell id="--6wiBrmQFSUpI-zjuBX-1" style="edgeStyle=orthogonalEdgeStyle;shape=connector;rounded=0;orthogonalLoop=1;jettySize=auto;html=1;exitX=1;exitY=0.75;exitDx=0;exitDy=0;entryX=0;entryY=0.5;entryDx=0;entryDy=0;strokeColor=default;strokeWidth=3;align=center;verticalAlign=middle;fontFamily=Helvetica;fontSize=11;fontColor=default;labelBackgroundColor=default;endArrow=classic;" edge="1" parent="1" source="lAIXfmTGiXvmbAfdySJ4-2" target="lAIXfmTGiXvmbAfdySJ4-161">
          <mxGeometry relative="1" as="geometry">
            <mxPoint x="568" y="451" as="sourcePoint" />
            <mxPoint x="695" y="451" as="targetPoint" />
          </mxGeometry>
        </mxCell>
        <mxCell id="--6wiBrmQFSUpI-zjuBX-2" style="edgeStyle=orthogonalEdgeStyle;rounded=0;orthogonalLoop=1;jettySize=auto;html=1;exitX=1;exitY=0.5;exitDx=0;exitDy=0;entryX=0;entryY=0;entryDx=170;entryDy=80;strokeWidth=3;entryPerimeter=0;" edge="1" parent="1" source="lAIXfmTGiXvmbAfdySJ4-196" target="lAIXfmTGiXvmbAfdySJ4-189">
          <mxGeometry relative="1" as="geometry">
            <mxPoint x="885" y="451" as="sourcePoint" />
            <mxPoint x="1111" y="452" as="targetPoint" />
            <Array as="points">
              <mxPoint x="1580" y="580" />
              <mxPoint x="1580" y="760" />
            </Array>
          </mxGeometry>
        </mxCell>
        <mxCell id="--6wiBrmQFSUpI-zjuBX-3" style="edgeStyle=orthogonalEdgeStyle;shape=connector;rounded=0;orthogonalLoop=1;jettySize=auto;html=1;exitX=0;exitY=0.5;exitDx=0;exitDy=0;entryX=0;entryY=0.5;entryDx=0;entryDy=0;strokeColor=default;strokeWidth=3;align=center;verticalAlign=middle;fontFamily=Helvetica;fontSize=11;fontColor=default;labelBackgroundColor=default;endArrow=classic;exitPerimeter=0;" edge="1" parent="1" source="lAIXfmTGiXvmbAfdySJ4-8" target="lAIXfmTGiXvmbAfdySJ4-195">
          <mxGeometry relative="1" as="geometry">
            <mxPoint x="285" y="579" as="sourcePoint" />
            <mxPoint x="695" y="579" as="targetPoint" />
            <Array as="points">
              <mxPoint x="-80" y="745" />
              <mxPoint x="-80" y="441" />
            </Array>
          </mxGeometry>
        </mxCell>
      </root>
    </mxGraphModel>
  </diagram>
</mxfile>
